<svg xmlns="http://www.w3.org/2000/svg" width="255.79999999999998" height="35" viewBox="0 0 255.79999999999998 35"><rect class="svg__rect" x="0" y="0" width="125.4" height="35" fill="#788C68"/><rect class="svg__rect" x="123.4" y="0" width="132.39999999999998" height="35" fill="#28431C"/><path class="svg__text" d="M16.51 22L13.46 13.47L15.08 13.47L17.22 20.14L19.39 13.47L21.02 13.47L17.95 22L16.51 22ZM25.75 22L24.21 22L27.43 13.47L28.76 13.47L31.99 22L30.44 22L29.74 20.01L26.44 20.01L25.75 22ZM28.09 15.28L26.86 18.82L29.33 18.82L28.09 15.28ZM41.30 22L35.94 22L35.94 13.47L37.43 13.47L37.43 20.82L41.30 20.82L41.30 22ZM46.99 22L45.51 22L45.51 13.47L46.99 13.47L46.99 22ZM54.25 22L51.80 22L51.80 13.47L54.32 13.47Q55.45 13.47 56.33 13.97Q57.20 14.48 57.68 15.40Q58.16 16.33 58.16 17.52L58.16 17.52L58.16 17.95Q58.16 19.16 57.68 20.08Q57.20 21.00 56.30 21.50Q55.41 22 54.25 22L54.25 22ZM53.28 14.66L53.28 20.82L54.25 20.82Q55.41 20.82 56.04 20.09Q56.66 19.36 56.67 17.99L56.67 17.99L56.67 17.52Q56.67 16.13 56.07 15.40Q55.47 14.66 54.32 14.66L54.32 14.66L53.28 14.66ZM63.41 22L61.87 22L65.09 13.47L66.42 13.47L69.65 22L68.10 22L67.40 20.01L64.10 20.01L63.41 22ZM65.75 15.28L64.51 18.82L66.99 18.82L65.75 15.28ZM75.28 14.66L72.65 14.66L72.65 13.47L79.41 13.47L79.41 14.66L76.75 14.66L76.75 22L75.28 22L75.28 14.66ZM82.90 18.00L82.90 18.00L82.90 17.52Q82.90 16.28 83.34 15.32Q83.79 14.37 84.59 13.86Q85.40 13.35 86.44 13.35Q87.48 13.35 88.29 13.85Q89.09 14.35 89.53 15.29Q89.97 16.23 89.98 17.48L89.98 17.48L89.98 17.96Q89.98 19.21 89.55 20.16Q89.11 21.10 88.31 21.61Q87.50 22.12 86.45 22.12L86.45 22.12Q85.41 22.12 84.60 21.61Q83.79 21.10 83.35 20.17Q82.91 19.23 82.90 18.00ZM84.38 17.46L84.38 17.96Q84.38 19.36 84.93 20.13Q85.48 20.90 86.45 20.90L86.45 20.90Q87.44 20.90 87.97 20.15Q88.50 19.40 88.50 17.96L88.50 17.96L88.50 17.51Q88.50 16.09 87.96 15.34Q87.42 14.58 86.44 14.58L86.44 14.58Q85.48 14.58 84.94 15.33Q84.39 16.09 84.38 17.46L84.38 17.46ZM95.93 22L94.44 22L94.44 13.47L97.44 13.47Q98.92 13.47 99.72 14.13Q100.53 14.79 100.53 16.05L100.53 16.05Q100.53 16.90 100.11 17.48Q99.70 18.06 98.96 18.37L98.96 18.37L100.88 21.92L100.88 22L99.29 22L97.58 18.71L95.93 18.71L95.93 22ZM95.93 14.66L95.93 17.52L97.45 17.52Q98.20 17.52 98.62 17.15Q99.04 16.77 99.04 16.11L99.04 16.11Q99.04 15.43 98.65 15.05Q98.26 14.68 97.49 14.66L97.49 14.66L95.93 14.66ZM104.49 19.42L104.49 19.42L105.97 19.42Q105.97 20.15 106.45 20.55Q106.93 20.95 107.83 20.95L107.83 20.95Q108.60 20.95 108.99 20.63Q109.38 20.32 109.38 19.80L109.38 19.80Q109.38 19.24 108.98 18.94Q108.59 18.63 107.56 18.32Q106.53 18.01 105.92 17.63L105.92 17.63Q104.75 16.90 104.75 15.72L104.75 15.72Q104.75 14.69 105.59 14.02Q106.43 13.35 107.77 13.35L107.77 13.35Q108.66 13.35 109.36 13.68Q110.06 14.01 110.46 14.61Q110.86 15.22 110.86 15.96L110.86 15.96L109.38 15.96Q109.38 15.29 108.96 14.91Q108.54 14.54 107.76 14.54L107.76 14.54Q107.04 14.54 106.63 14.85Q106.23 15.16 106.23 15.71L106.23 15.71Q106.23 16.18 106.67 16.50Q107.10 16.81 108.10 17.10Q109.09 17.40 109.70 17.78Q110.30 18.16 110.58 18.65Q110.86 19.13 110.86 19.79L110.86 19.79Q110.86 20.86 110.04 21.49Q109.23 22.12 107.83 22.12L107.83 22.12Q106.90 22.12 106.12 21.77Q105.35 21.43 104.92 20.83Q104.49 20.22 104.49 19.42Z" fill="#FFFFFF"/><path class="svg__text" d="M139.01 22L136.58 22L140.29 13.60L142.63 13.60L146.35 22L143.88 22L143.22 20.37L139.67 20.37L139.01 22ZM141.44 15.93L140.36 18.61L142.52 18.61L141.44 15.93ZM150.07 17.80L150.07 17.80Q150.07 16.54 150.67 15.54Q151.27 14.55 152.32 13.99Q153.37 13.43 154.69 13.43L154.69 13.43Q155.85 13.43 156.77 13.84Q157.69 14.25 158.31 15.02L158.31 15.02L156.79 16.39Q155.98 15.40 154.81 15.40L154.81 15.40Q154.13 15.40 153.60 15.70Q153.06 16 152.77 16.54Q152.47 17.09 152.47 17.80L152.47 17.80Q152.47 18.51 152.77 19.05Q153.06 19.60 153.60 19.90Q154.13 20.20 154.81 20.20L154.81 20.20Q155.98 20.20 156.79 19.22L156.79 19.22L158.31 20.58Q157.70 21.35 156.77 21.76Q155.85 22.17 154.69 22.17L154.69 22.17Q153.37 22.17 152.32 21.61Q151.27 21.05 150.67 20.05Q150.07 19.06 150.07 17.80ZM165.22 22L162.84 22L162.84 13.60L165.22 13.60L165.22 16.76L168.46 16.76L168.46 13.60L170.83 13.60L170.83 22L168.46 22L168.46 18.72L165.22 18.72L165.22 22ZM182.74 22L176.00 22L176.00 13.60L182.59 13.60L182.59 15.44L178.35 15.44L178.35 16.85L182.08 16.85L182.08 18.63L178.35 18.63L178.35 20.17L182.74 20.17L182.74 22ZM187.12 17.80L187.12 17.80Q187.12 16.54 187.71 15.54Q188.31 14.55 189.36 13.99Q190.42 13.43 191.73 13.43L191.73 13.43Q192.89 13.43 193.81 13.84Q194.73 14.25 195.35 15.02L195.35 15.02L193.84 16.39Q193.02 15.40 191.86 15.40L191.86 15.40Q191.17 15.40 190.64 15.70Q190.11 16 189.81 16.54Q189.51 17.09 189.51 17.80L189.51 17.80Q189.51 18.51 189.81 19.05Q190.11 19.60 190.64 19.90Q191.17 20.20 191.86 20.20L191.86 20.20Q193.02 20.20 193.84 19.22L193.84 19.22L195.35 20.58Q194.74 21.35 193.81 21.76Q192.89 22.17 191.73 22.17L191.73 22.17Q190.42 22.17 189.36 21.61Q188.31 21.05 187.71 20.05Q187.12 19.06 187.12 17.80ZM202.24 22L199.88 22L199.88 13.60L202.24 13.60L202.24 17.09L205.49 13.60L208.11 13.60L204.68 17.32L208.29 22L205.53 22L203.13 18.95L202.24 19.90L202.24 22ZM219.14 22L212.39 22L212.39 13.60L218.99 13.60L218.99 15.44L214.75 15.44L214.75 16.85L218.48 16.85L218.48 18.63L214.75 18.63L214.75 20.17L219.14 20.17L219.14 22ZM226.32 22L223.94 22L223.94 13.60L227.79 13.60Q228.93 13.60 229.77 13.98Q230.61 14.35 231.06 15.06Q231.52 15.76 231.52 16.71L231.52 16.71Q231.52 17.62 231.09 18.30Q230.66 18.98 229.87 19.36L229.87 19.36L231.68 22L229.14 22L227.62 19.77L226.32 19.77L226.32 22ZM226.32 15.47L226.32 17.93L227.64 17.93Q228.37 17.93 228.75 17.61Q229.12 17.29 229.12 16.71L229.12 16.71Q229.12 16.12 228.75 15.79Q228.37 15.47 227.64 15.47L227.64 15.47L226.32 15.47ZM235.72 21.24L235.72 21.24L236.50 19.49Q237.06 19.86 237.81 20.09Q238.55 20.32 239.27 20.32L239.27 20.32Q240.64 20.32 240.64 19.64L240.64 19.64Q240.64 19.28 240.25 19.11Q239.86 18.93 239.00 18.74L239.00 18.74Q238.05 18.53 237.41 18.30Q236.78 18.06 236.32 17.55Q235.87 17.03 235.87 16.16L235.87 16.16Q235.87 15.39 236.29 14.77Q236.71 14.15 237.54 13.79Q238.38 13.43 239.58 13.43L239.58 13.43Q240.41 13.43 241.21 13.62Q242.02 13.80 242.63 14.17L242.63 14.17L241.90 15.93Q240.70 15.28 239.57 15.28L239.57 15.28Q238.86 15.28 238.54 15.49Q238.22 15.70 238.22 16.04L238.22 16.04Q238.22 16.37 238.60 16.54Q238.98 16.71 239.83 16.89L239.83 16.89Q240.79 17.10 241.42 17.33Q242.05 17.56 242.52 18.07Q242.98 18.58 242.98 19.46L242.98 19.46Q242.98 20.21 242.56 20.83Q242.14 21.44 241.30 21.80Q240.46 22.17 239.26 22.17L239.26 22.17Q238.24 22.17 237.28 21.92Q236.32 21.67 235.72 21.24Z" fill="#FFFFFF" x="136.4"/></svg>