<svg xmlns="http://www.w3.org/2000/svg" width="186.26000000000002" height="35" viewBox="0 0 186.26000000000002 35"><rect class="svg__rect" x="0" y="0" width="125.4" height="35" fill="#8FC965"/><rect class="svg__rect" x="123.4" y="0" width="62.860000000000014" height="35" fill="#5D9741"/><path class="svg__text" d="M16.51 22L13.46 13.47L15.08 13.47L17.22 20.14L19.39 13.47L21.02 13.47L17.95 22L16.51 22ZM25.75 22L24.21 22L27.43 13.47L28.76 13.47L31.99 22L30.44 22L29.74 20.01L26.44 20.01L25.75 22ZM28.09 15.28L26.86 18.82L29.33 18.82L28.09 15.28ZM41.30 22L35.94 22L35.94 13.47L37.43 13.47L37.43 20.82L41.30 20.82L41.30 22ZM46.99 22L45.51 22L45.51 13.47L46.99 13.47L46.99 22ZM54.25 22L51.80 22L51.80 13.47L54.32 13.47Q55.45 13.47 56.33 13.97Q57.20 14.48 57.68 15.40Q58.16 16.33 58.16 17.52L58.16 17.52L58.16 17.95Q58.16 19.16 57.68 20.08Q57.20 21.00 56.30 21.50Q55.41 22 54.25 22L54.25 22ZM53.28 14.66L53.28 20.82L54.25 20.82Q55.41 20.82 56.04 20.09Q56.66 19.36 56.67 17.99L56.67 17.99L56.67 17.52Q56.67 16.13 56.07 15.40Q55.47 14.66 54.32 14.66L54.32 14.66L53.28 14.66ZM63.41 22L61.87 22L65.09 13.47L66.42 13.47L69.65 22L68.10 22L67.40 20.01L64.10 20.01L63.41 22ZM65.75 15.28L64.51 18.82L66.99 18.82L65.75 15.28ZM75.28 14.66L72.65 14.66L72.65 13.47L79.41 13.47L79.41 14.66L76.75 14.66L76.75 22L75.28 22L75.28 14.66ZM82.90 18.00L82.90 18.00L82.90 17.52Q82.90 16.28 83.34 15.32Q83.79 14.37 84.59 13.86Q85.40 13.35 86.44 13.35Q87.48 13.35 88.29 13.85Q89.09 14.35 89.53 15.29Q89.97 16.23 89.98 17.48L89.98 17.48L89.98 17.96Q89.98 19.21 89.55 20.16Q89.11 21.10 88.31 21.61Q87.50 22.12 86.45 22.12L86.45 22.12Q85.41 22.12 84.60 21.61Q83.79 21.10 83.35 20.17Q82.91 19.23 82.90 18.00ZM84.38 17.46L84.38 17.96Q84.38 19.36 84.93 20.13Q85.48 20.90 86.45 20.90L86.45 20.90Q87.44 20.90 87.97 20.15Q88.50 19.40 88.50 17.96L88.50 17.96L88.50 17.51Q88.50 16.09 87.96 15.34Q87.42 14.58 86.44 14.58L86.44 14.58Q85.48 14.58 84.94 15.33Q84.39 16.09 84.38 17.46L84.38 17.46ZM95.93 22L94.44 22L94.44 13.47L97.44 13.47Q98.92 13.47 99.72 14.13Q100.53 14.79 100.53 16.05L100.53 16.05Q100.53 16.90 100.11 17.48Q99.70 18.06 98.96 18.37L98.96 18.37L100.88 21.92L100.88 22L99.29 22L97.58 18.71L95.93 18.71L95.93 22ZM95.93 14.66L95.93 17.52L97.45 17.52Q98.20 17.52 98.62 17.15Q99.04 16.77 99.04 16.11L99.04 16.11Q99.04 15.43 98.65 15.05Q98.26 14.68 97.49 14.66L97.49 14.66L95.93 14.66ZM104.49 19.42L104.49 19.42L105.97 19.42Q105.97 20.15 106.45 20.55Q106.93 20.95 107.83 20.95L107.83 20.95Q108.60 20.95 108.99 20.63Q109.38 20.32 109.38 19.80L109.38 19.80Q109.38 19.24 108.98 18.94Q108.59 18.63 107.56 18.32Q106.53 18.01 105.92 17.63L105.92 17.63Q104.75 16.90 104.75 15.72L104.75 15.72Q104.75 14.69 105.59 14.02Q106.43 13.35 107.77 13.35L107.77 13.35Q108.66 13.35 109.36 13.68Q110.06 14.01 110.46 14.61Q110.86 15.22 110.86 15.96L110.86 15.96L109.38 15.96Q109.38 15.29 108.96 14.91Q108.54 14.54 107.76 14.54L107.76 14.54Q107.04 14.54 106.63 14.85Q106.23 15.16 106.23 15.71L106.23 15.71Q106.23 16.18 106.67 16.50Q107.10 16.81 108.10 17.10Q109.09 17.40 109.70 17.78Q110.30 18.16 110.58 18.65Q110.86 19.13 110.86 19.79L110.86 19.79Q110.86 20.86 110.04 21.49Q109.23 22.12 107.83 22.12L107.83 22.12Q106.90 22.12 106.12 21.77Q105.35 21.43 104.92 20.83Q104.49 20.22 104.49 19.42Z" fill="#FFFFFF"/><path class="svg__text" d="M139.67 22L136.94 13.60L139.39 13.60L141.08 18.96L142.86 13.60L145.04 13.60L146.73 19.01L148.50 13.60L150.77 13.60L148.04 22L145.50 22L143.89 16.89L142.21 22L139.67 22ZM154.39 21.34L154.39 21.34L155.25 19.55Q155.75 19.88 156.36 20.07Q156.98 20.25 157.59 20.25L157.59 20.25Q158.20 20.25 158.56 20.02Q158.92 19.79 158.92 19.37L158.92 19.37Q158.92 18.55 157.63 18.55L157.63 18.55L156.64 18.55L156.64 17.05L158.14 15.44L154.83 15.44L154.83 13.60L160.90 13.60L160.90 15.09L159.16 16.96Q160.20 17.18 160.76 17.82Q161.32 18.46 161.32 19.37L161.32 19.37Q161.32 20.11 160.91 20.75Q160.51 21.39 159.69 21.78Q158.87 22.17 157.66 22.17L157.66 22.17Q156.77 22.17 155.90 21.95Q155.03 21.74 154.39 21.34ZM165.57 17.80L165.57 17.80Q165.57 16.54 166.16 15.54Q166.76 14.55 167.81 13.99Q168.87 13.43 170.18 13.43L170.18 13.43Q171.34 13.43 172.26 13.84Q173.18 14.25 173.80 15.02L173.80 15.02L172.29 16.39Q171.47 15.40 170.31 15.40L170.31 15.40Q169.62 15.40 169.09 15.70Q168.55 16 168.26 16.54Q167.96 17.09 167.96 17.80L167.96 17.80Q167.96 18.51 168.26 19.05Q168.55 19.60 169.09 19.90Q169.62 20.20 170.31 20.20L170.31 20.20Q171.47 20.20 172.29 19.22L172.29 19.22L173.80 20.58Q173.19 21.35 172.26 21.76Q171.34 22.17 170.18 22.17L170.18 22.17Q168.87 22.17 167.81 21.61Q166.76 21.05 166.16 20.05Q165.57 19.06 165.57 17.80Z" fill="#FFFFFF" x="136.4"/></svg>